<?xml version="1.0" encoding="UTF-8" standalone="no"?><svg id="Calque_1" xmlns="http://www.w3.org/2000/svg" viewBox="0 0 499.2 469.4"><defs><style>.cls-2{stroke-width:0;fill:#333330}</style></defs><path class="cls-2" d="M406.9 171.8A82.5 82.5 0 0 1 395.5 327h-.4c-.4-5.1-1-10.3-1.7-15.3h.2a66.4 66.4 0 0 0 48.1-64.3 68 68 0 0 0-135.8 0 65.4 65.4 0 0 0 47 63.4h.5l.5 16.7a82.6 82.6 0 0 1-7.3-158 81.7 81.7 0 0 1 60.3 2.3Zm4.9-109.4s42.4 27 35.4 88.5l-.4.6a122.9 122.9 0 0 0-31.6-14l-2.7-.7-29.7-5.4.1-.5s2-37.8-40.6-41.7c-42.7-4-74.4 23.7-108.2 35.6-33.7 11.9-12.9-46.5-21.8-31.7-9 15-42.6 51.6-42.6 51.6l-.1.5-8.7-2.7-.6-.5c6.2-8.1 4-17.4-7.5-16.4a1780 1780 0 0 0-66 11.3l-2.7.6-7 2.2v-.3s3.3-32.3 17.2-47.2 21.8-3 34.7-20.8C142 53.5 182.5 8 217.3 3 252-2 247 24.8 263.9 22.8c16.8-1.9 87.2-22.8 116-7a64 64 0 0 1 31.8 46.6Z"/><path d="M401.3 372.2c9 10.4 9.6 58.2 9.6 60-1.9 11.6-2.9 23.2-3 35h-90.4v-1.8l-2-43.6s69.5-29.7 78-52.9l.7-1.8 1.2.3c2.4 1.6 4.5 3.2 5.9 4.8Z" style="fill:#f5f5f2;stroke-width:0"/><path d="m353.8 327.5-.4-16.7-1.1-41 30.7 1.9 4 .2s3.8 18.5 6.6 39.9c.6 5 1.2 10.2 1.6 15.3 1.5 15.6 1.7 30.8-1 40l-.5 1.8c-8.7 23.2-78 53-78 53l1.8 43.5v1.7H137.7v-1l5.3-35s6-35.8 32.4-53.6c26.5-18 75.1-13.5 94.2-14.8 18-1.2 70.5-10.4 82.5-12.6l2.5-.4-.8-22.2Zm-59.1-115.2c-2.7 2.3-5.3 4.5-7.8 7.1l-27.4 27.4-10 10-9.6-9.5-27.3-27.2c-2.8-2.9-5.6-5.3-8.4-7.7 4-19.9 15.1-38 45.2-38 1.9 0 3.7.2 5.5.4 26 2 36.2 18.9 39.8 37.5Z" style="stroke-width:0;fill:#fb5757"/><path class="cls-2" d="M278.5 292.2c1 9.6.1 19.3-2.8 28.4-4.3 13-13 22-28.5 22-16.1 0-26.3-10.6-30.5-24.9a60 60 0 0 1-2-24.6c3-21.8 19.4-25.4 32.8-25.4 14.5 0 28.3 6 31 24.5ZM208 247.4a82.6 82.6 0 0 1-164.3 10.5v-.5l-.6-5.2v-.6l-.1-4.2a82.5 82.5 0 0 1 165 0Zm-14.5 0a68 68 0 1 0-136 0 68 68 0 0 0 136 0Z"/><path class="cls-2" d="M125.5 317.6a70.3 70.3 0 1 1 .2-140.6 70.3 70.3 0 0 1-.2 140.6Zm0-135.9a65.7 65.7 0 1 0 .1 131.5 65.7 65.7 0 0 0-.1-131.5Z"/><path class="cls-2" d="M125.3 332a84.7 84.7 0 0 1-84-73.8 2.3 2.3 0 0 1 4.5-.6 80.2 80.2 0 0 0 79.5 70c21.5 0 41.6-8.4 56.8-23.6a79.7 79.7 0 0 0 23.4-56.7c0-21.4-8.3-41.6-23.5-56.7a80.3 80.3 0 0 0-136.9 56.7l.2 4.2a2.3 2.3 0 1 1-4.6.1v-4.2c-.1-46.7 37.9-84.8 84.6-84.8 22.7 0 44 8.8 60 24.8s24.8 37.3 24.8 59.9-8.8 44-24.8 60a84.2 84.2 0 0 1-60 24.8Z"/><path class="cls-2" d="M43.6 259.7c-1.1 0-2-.8-2.3-2-.3-1.8-.4-3.7-.5-5.3a2.3 2.3 0 1 1 4.5-.3c.1 1.6.2 3.3.5 5a2.3 2.3 0 0 1-2.2 2.6Z"/><path class="cls-2" d="M91.3 469.3c-1.3 0-2.3-1-2.3-2.2a233 233 0 0 0-3.9-40.5c-5.6-31.4-16.1-63-24.6-88.3l-3-9A346.1 346.1 0 0 1 41.2 258v-.4l-.6-6v-1.1a2.3 2.3 0 0 1 4.6 0v.9l.5 6.1a341.5 341.5 0 0 0 19 79.3c8.5 25.5 19.1 57.2 24.8 88.9 2.6 15.2 4 28.7 4 41.3 0 1.2-1 2.2-2.3 2.2Z"/><path class="cls-2" d="M87.3 428.7c-1.2 0-2.2-1-2.2-2.3v-.2c.1-4.6 1.7-44.7 11.1-55.5 8.1-9.3 33.6-17.9 56-25.5l12.4-4.2c9.8-3.4 16.2-8.4 19-14.7 3-6.9 1.4-13.9-.5-18.6a2.3 2.3 0 0 1 4.2-1.7c2.2 5.5 4.2 13.8.5 22.1-3.4 7.5-10.7 13.3-21.7 17.2l-12.4 4.2c-20.8 7-46.8 15.8-54 24.2-6.9 7.8-9.6 37.8-10.1 52.6v.2c0 1.2-1 2.2-2.3 2.2Zm83.4-254.6c-9 0-18.1-2.6-19.8-3a2.3 2.3 0 1 1 1.3-4.4c6.8 2 25.6 5.7 31.3-1 2.8-3.4 4-6.2 3.5-8.3-.6-2.4-3.4-4.5-8.6-6.6-6-2.4-12-4.5-18.2-6.2a2.3 2.3 0 1 1 1.2-4.4c6.3 1.8 12.6 4 18.7 6.4 6.7 2.7 10.3 5.8 11.3 9.7 1 3.7-.6 7.7-4.5 12.3-3.6 4.2-9.8 5.5-16.2 5.5Z"/><path class="cls-2" d="M114 469.4H6.7c-1.2 0-2.2-1-2.2-2.2-.1-1.4-6-143.4-4-216.7 2-72.1 42.4-101.2 76-113l7-2.2 2.7-.7h.1a1733 1733 0 0 1 66.4-11.3c7.8-.7 11 2.9 12.1 5 2.3 4.2 1.2 10-2.7 15a31.4 31.4 0 0 1-14.4 10.2c-2.8 1-6.4 2-10.7 3.3-12.5 3.5-31.4 9-51 20.3a2.3 2.3 0 1 1-2.4-4c20.2-11.5 39.4-17 52.2-20.7 4.1-1.2 7.7-2.2 10.4-3.2 5-1.7 9.2-4.7 12.4-8.7 2.7-3.5 3.6-7.5 2.2-10-1.1-2-3.9-3-7.7-2.7A1770 1770 0 0 0 87 139l-2.5.7-6.8 2.1c-20.1 7-36.4 18.2-48.5 33.2C14 194.2 5.8 219.7 5 250.6c-1.8 68.1 3.2 196 3.9 214.3H114a2.3 2.3 0 0 1 0 4.5ZM393.6 314a2.3 2.3 0 0 1-.6-4.5 64.3 64.3 0 0 0 46.6-62 65.7 65.7 0 0 0-131.4 0 63.2 63.2 0 0 0 45.4 61.2 2.3 2.3 0 0 1-1.3 4.4 67.6 67.6 0 0 1-48.6-65.7 70.3 70.3 0 0 1 140.4 0 68.9 68.9 0 0 1-50.5 66.5Z"/><path class="cls-2" d="M353.9 329.7h-.7a84.5 84.5 0 0 1-55.8-119.2 84.4 84.4 0 0 1 157.9 14.3c6 21.9 3.1 44.7-8 64.4a84.3 84.3 0 0 1-51.3 40 2.3 2.3 0 0 1-1.2-4.4 79.8 79.8 0 0 0 48.5-37.8 80 80 0 1 0-141.8-74.5A80 80 0 0 0 354 325.2a2.3 2.3 0 0 1-.2 4.5Z"/><path class="cls-2" d="M408 469.4h-.1c-1.2 0-2.3-1-2.2-2.3 0-11.8 1-23.6 3-35.2 5.3-34 16.8-68.2 26-95.6l2.9-8.4a344.6 344.6 0 0 0 15.1-66c1-7.5 1-11.8 1-11.8.1-1.3 1.2-2.3 2.4-2.2 1.3 0 2.3 1 2.2 2.3 0 .2-.2 4.6-1 12.3-3 22.7-8.2 45.2-15.5 66.8l-2.8 8.4c-9.2 27.3-20.6 61.2-26 95-1.8 11.3-2.8 23-2.8 34.4 0 1.3-1 2.3-2.3 2.3Zm-56-117.8-.7-.1h-.1a905 905 0 0 1-18-6.2c-10.8-3.8-17.8-9.3-21-16.4-3-6.5-2.7-14 .8-22.4a2.3 2.3 0 0 1 4.2 1.7c-3 7.2-3.3 13.5-1 18.8 2.8 6 9 10.7 18.4 14l18 6.2h.1a2.3 2.3 0 0 1-.7 4.4Z"/><path class="cls-2" d="M410.9 434.6c-1.3 0-2.3-1-2.3-2.3 0-10.2-1.5-50-9-58.6a26 26 0 0 0-5.4-4.4 2.3 2.3 0 1 1 2.4-3.8 30.6 30.6 0 0 1 6.4 5.2c4 4.7 7 16.3 8.7 34.5 1.3 14.1 1.4 27 1.4 27.1 0 1.3-1 2.3-2.2 2.3Zm-82.1-260.3c-6.5 0-12.9-1.3-16.5-5.6-4-4.6-5.5-8.6-4.6-12.3 1-4 4.6-7 11.4-9.8 6-2.3 12.3-4.5 18.6-6.3a2.3 2.3 0 0 1 1.3 4.3 221 221 0 0 0-18.3 6.2c-5.2 2.1-8 4.3-8.6 6.7-.5 2.1.7 4.9 3.6 8.3 3.2 3.7 12.7 6 30.1 1.5h.2a2.3 2.3 0 1 1 1.1 4.4h-.2a77 77 0 0 1-18.1 2.6Z"/><path class="cls-2" d="M492.6 469.4H114.3a2.3 2.3 0 0 1 0-4.5h376.1c.7-18.2 5.7-146 3.9-214.3-1.2-44.8-17.6-77.5-48.6-97.1-9.7-6-20.1-10.7-31-13.8l-2.6-.6-29.6-5.4c-19.1-3.4-32.3-5.5-36.3-5.8-3.8-.4-6.6.6-7.7 2.7-1.4 2.5-.5 6.4 2.3 10 3.2 4 7.4 7 12.3 8.7l9.4 3a284.7 284.7 0 0 1 54.4 22.2 2.3 2.3 0 0 1-2.3 4c-2.9-1.7-5.8-3.2-8.7-4.6-17.2-8.7-33.8-13.9-44.7-17.3l-9.6-3c-5.6-2-10.6-5.5-14.4-10.2-4-5.1-5-10.9-2.7-15 1.2-2.1 4.4-5.7 12.1-5a740 740 0 0 1 36.7 5.9 3306.5 3306.5 0 0 1 29.8 5.4l2.7.6c11.4 3.3 22.3 8 32.3 14.3a101.8 101.8 0 0 1 34.8 36.7 138 138 0 0 1 16 64.2c1.9 73.3-4 215.3-4 216.8-.1 1.2-1.1 2.1-2.3 2.1Z"/><path class="cls-2" d="M249.4 259c-.5 0-1.1-.1-1.6-.6l-9.5-9.4-27.2-27.3a148 148 0 0 0-8.4-7.6c-.6-.5-.9-1.4-.7-2.2 5.2-26.3 21.2-39.6 47.4-39.6 2 0 4 0 5.6.2 23 1.8 37 15 41.9 39.3.2.8-.1 1.6-.8 2.2-2.6 2.2-5.2 4.6-7.6 7l-27.3 27.4-10.2 10c-.4.5-1 .7-1.6.7Zm-42.7-47.5c2.5 2.2 5 4.4 7.6 7l27.2 27.3 8 7.8 8.5-8.5 27.3-27.3c2.2-2.2 4.5-4.3 6.9-6.4-4.7-21.5-17-32.8-37.5-34.4l-5.3-.2c-23.7 0-37.7 11.4-42.7 34.7Zm-37-64.5a2.3 2.3 0 0 1-1.7-3.8c.4-.4 33.7-36.8 42.4-51.2 1-1.8 2.5-4.2 4.7-3.4 2.3.7 2.1 3 1.7 8.6-.7 7.3-1.8 21 4 25.4 2.7 2 7 2.1 12.6 0 10.4-3.6 20.4-8.7 31-14 23.7-12 48-24.5 78.1-21.7 12.8 1.2 29.7 6.3 38.2 23.6 5 10.4 4.6 20.1 4.6 20.5a2.3 2.3 0 1 1-4.5-.2s.3-9.1-4.3-18.4c-6-12.4-17.6-19.4-34.4-21-28.8-2.7-52.6 9.4-75.6 21.1-10.8 5.5-21 10.7-31.6 14.4-7.2 2.6-12.9 2.4-16.9-.7-7.5-5.8-6.6-19.9-5.8-28.7a640 640 0 0 1-40.8 48.8c-.5.4-1.1.7-1.7.7Z"/><path class="cls-2" d="M224.9 365.9h-.4c-1.2-.3-2-1.5-1.8-2.7l4.3-24.4c0-.2 0-.5.2-.6a38.3 38.3 0 0 1-12.7-19.8 62 62 0 0 1-2-25.6c1.4-10.5 6-18 13.6-22.5a41.8 41.8 0 0 1 21.6-4.8 37 37 0 0 1 21 5.7 29 29 0 0 1 12 20.8c1.2 10 .2 19.8-2.9 29.3a37.7 37.7 0 0 1-8.7 15.2l1 23.4a2.3 2.3 0 0 1-4.5.2l-1-20.2a31 31 0 0 1-17.4 4.9c-6 0-11.3-1.4-16-4l-4 23.2a2.3 2.3 0 0 1-2.3 1.9Zm22.8-95.9h-.2c-18.6 0-28.4 7.4-30.6 23.4-1 8-.3 16 2 23.7 2.5 8.6 9.6 23.1 28.3 23.1 13 0 21.9-6.8 26.3-20.3a65.7 65.7 0 0 0 2.8-27.4c-1.6-10.3-7.8-22.5-28.6-22.5Zm199.5-116.8h-.3a2.3 2.3 0 0 1-2-2.5c3.5-31-6-52.8-14.6-65.6a77.7 77.7 0 0 0-19.8-20.7c-.6-.4-1-1-1-1.6a61.5 61.5 0 0 0-30.6-45c-21.7-12-68.7-2.1-96.8 3.7-7.9 1.7-14.1 3-18 3.4-8 1-12-3.9-15.9-8.6C243 9.7 237 2.3 217.6 5c-34.4 5-75.2 51.6-86.7 67.6-7.4 10.1-13.5 11.4-19.3 12.6-5 1-9.6 2-15.7 8.4-13.2 14.2-16.5 45.6-16.6 45.9a2.3 2.3 0 1 1-4.5-.5c.2-1.3 3.6-33.2 17.8-48.5 7-7.5 13-8.7 18-9.8 5.5-1 10.3-2 16.6-10.8 6.8-9.3 20.4-25.3 36.3-39.4 20-17.6 38-27.7 53.5-30 21.8-3.1 29.3 6.1 34.7 12.8 3.7 4.5 6.3 7.7 12 7 3.5-.4 9.7-1.7 17.5-3.3 28.7-6 76.7-16 99.9-3.2a66 66 0 0 1 32.7 47.3c2.8 2 11.7 8.8 20.1 21.2a100.3 100.3 0 0 1 15.5 68.8c-.1 1.2-1 2-2.2 2Z"/><path class="cls-2" d="M183.2 467h-.2a2.3 2.3 0 0 1-2-2.4l4.2-43.6a2.3 2.3 0 1 1 4.5.4l-4.2 43.6c-.2 1.2-1.1 2-2.3 2Zm92.6-144a2.3 2.3 0 0 1-.2-4.6c.3 0 8-.8 8.5-12.4.2-4.5-.6-7.9-2.4-9.8a5 5 0 0 0-3.3-1.7 2.3 2.3 0 1 1 0-4.5c.4 0 3.7 0 6.5 3 2.8 2.9 4 7.3 3.7 13.3-.4 8-3.7 12.1-6.4 14.1a12.7 12.7 0 0 1-6.4 2.5Zm-60.2-2.8h-.2c-2.8-.3-5.5-2.1-7.7-5.1-3.5-5-4.9-11.7-3.6-17.4 1-3.9 2.6-6.3 5-7.3 2.9-1.2 5.4.4 5.7.5a2.3 2.3 0 0 1-2.3 3.9s-1-.5-1.7-.2c-1 .4-1.7 1.9-2.3 4-1.1 5.2.6 10.7 3 13.8 1.3 2 2.9 3.2 4.3 3.3a2.3 2.3 0 0 1-.2 4.5Zm-8-54.2a2.3 2.3 0 0 1-1-4.2l31.8-16a2.3 2.3 0 1 1 2 4.1l-31.7 15.9c-.3.2-.7.2-1 .2Zm83.5-1.3c-.4 0-.7 0-1-.2-4.9-2.3-29.4-14-31.4-15.4a2.3 2.3 0 0 1 2.5-3.8c1.5 1 19.7 9.8 30.8 15.1a2.3 2.3 0 0 1-1 4.3Zm16.5-69.4c-.4 0-.9-.2-1.3-.4a104.5 104.5 0 0 0-51.5-19.5A98.8 98.8 0 0 0 190 194a2.3 2.3 0 0 1-3-3.5c1.2-1 28.6-23 68.2-19.7a109 109 0 0 1 53.8 20.3 2.3 2.3 0 0 1-1.4 4Z"/><path class="cls-2" d="M137.5 468.4h-.3c-1.3-.2-2.1-1.4-2-2.6l5.4-35c.2-1.6 6.4-37 33.4-55.2 21.5-14.5 56.8-14.7 80.2-14.8 6 0 11.2 0 15-.3a1351 1351 0 0 0 82.4-12.5l.6-.1-1-37-1.2-40.5-.1-.4c0-.2-1.8-13-4-24.2l-1.4-6.3c-1.8-8.2-3.1-13.6 0-15.6a6.2 6.2 0 0 1 5.6-.8c4.5 1.6 6.8 8.3 8.8 14.2l1.1 3.2c.5-2.3.9-5.8 1.1-8.4a128 128 0 0 1 2.4-17.2c.7-4.6 1.1-8.2 3.7-9.8 2.4-1.5 4.2-.8 5.1-.2 1.5 1 3 3.1 3.2 10.6 1.4-5.4 2.2-8.3 4.6-9.5 2-1 4.1-.3 4.8 0 3.6 1.3 4.3 6.6 2.3 17-1.2 6.3-3 12.6-3.6 14.3a2.3 2.3 0 0 1-2.8 1.6 2.2 2.2 0 0 1-1.5-2.8c.5-1.6 2.1-7.2 3.3-13 2-10.4.8-12.6.7-12.9-.9-.3-1.1-.2-1.1-.2-.7.4-1.5 3.7-2.3 6.6l-.4 1.5c-2.3 8.6-5.8 18.5-5.8 18.6a2.3 2.3 0 0 1-4.4-1.2s1-6.3 1.5-12.9c.7-10.5-.5-13.2-.9-13.8 0 0-.2 0-.3.2-.8.4-1.2 4-1.6 6.5l-.8 5.4c-.8 4-1.2 8-1.6 11.6-.7 7.4-1.2 12.2-4.1 14-.8.4-1.6.5-2.5.2-2-.8-2.8-3.3-4.4-8-1.3-3.9-3.6-10.5-6-11.3-.2-.1-.6-.2-1.4.2-.4 1.5.9 7.1 1.7 10.9l1.5 6.4c1.7 8.8 3.1 18.6 3.7 22.6l27.6 1.7c1.8-3.1 6.7-12 11.3-21.4 9.2-19 9-23.5 8.7-24.4h-.2a20 20 0 0 0-2.3 4.1l-1.4 2.9-6.2 12.6a2.3 2.3 0 0 1-4-2l6.2-12.6 1.3-2.8c2-4.3 4-8.3 8.7-6.2a4 4 0 0 1 2.2 2.6c.7 2.5.6 8.2-9.3 28.4-3.7 7.6-7.8 15.1-10 19.2h.4c1 .1 1.8.9 2 1.9a590.7 590.7 0 0 1 8.3 55.4c1.7 19.2 1.4 32.6-1 40.8v.1l-.7 1.9c-8.3 22.2-67.5 49-77.9 53.6l2 42a2.3 2.3 0 0 1-4.6.3l-2-43.6c0-1 .5-1.8 1.4-2.2.2 0 17.5-7.5 35.6-17.7 23.6-13.2 37.9-25 41.2-33.9l.6-1.8c2.2-7.6 2.5-20.8 1-39a594 594 0 0 0-7.9-53.2l-2.3-.2-28.3-1.8 1.2 38.6 1 38.9c0 1.1-.7 2-1.8 2.3l-2.5.4c-6.5 1.2-63.4 11.3-82.8 12.6-4 .3-9.3.3-15.4.3-22.8.1-57.3.3-77.7 14-25.4 17.1-31.4 51.8-31.4 52.2l-5.4 35c-.1 1.1-1 2-2.2 2Zm245.8-258.2Z"/><path class="cls-2" d="M389.6 244a2.3 2.3 0 0 1-2-3.2c6-13.6 7.3-22.8 6.2-24.7-.2-.2-.2-.3-.5-.4h-.1c-.6.3-1.5 2.9-2 4.4a489.4 489.4 0 0 1-7.6 17.8 2.3 2.3 0 0 1-4-2 509.3 509.3 0 0 0 7.3-17.3c1.3-3.7 2.8-7.8 6.8-7.3 1.8.1 3.1 1 4 2.5 3.7 6.5-4.4 25.2-6 29-.4.7-1.2 1.2-2.1 1.2Z"/></svg>