<?xml version="1.0" encoding="UTF-8" standalone="no"?><svg id="Calque_1" xmlns="http://www.w3.org/2000/svg" viewBox="0 0 499 403.7"><defs><style>.cls-1,.cls-2{fill:#fb5757;stroke-width:0}.cls-2{fill:#333330}</style></defs><path class="cls-1" d="M472.4 354.9c4.8 29.1-42.4 28.5-42.4 28.5h-38.7v-.7c.9-35-19.8-46.2-19.8-46.2l10.3-58.5 1 .2s84.4 45.2 89.6 76.7Z"/><path class="cls-2" d="M248.6 1.5c21.8 0 39.5 17 39.5 38.1 0 6.3-1.3 11.3-4.1 16.6l-.2.5c-8-3.3-16.7-5-25.5-4.9-16.2.2-31 2.7-43 8l-.3-.4c-3.6-6-5.7-12.8-5.9-19.7a38.9 38.9 0 0 1 39.5-38.2Zm30.7 148.7c2.3.3 4 2.9 3 6.5v.3c-2.5-.3-5-.4-7.5-.2v-.1c-1.6-4 1.5-6.5 4-6.5h.5Zm-29.2 119.5a19 19 0 1 1 1.8 38 19 19 0 0 1-1.8-38Zm-29.2-119.6c2.5.1 5.6 2.5 4 6.5v.2c-2.6-.2-5.1-.2-7.6.2v-.4c-1-3.6.7-6.2 3-6.5h.6Z"/><path class="cls-2" d="M193 142.7s-3.2-1.2-5.5-1v-.5s-11.6-20.2-2.6-48.7a52 52 0 0 1 30.4-32.7 111 111 0 0 1 43.1-8c8.6 0 17.4 1.5 25.4 4.8 25.7 10.7 44.2 38.8 27.3 84.5l-.8.5c-2.2 0-5 1-5 1l-.2.2c-.4-.8-.8-1.4-1.3-1.9l.3-.1c-3-58.7-48.2-55.1-48.2-55.1-25.9 41.3-57.3 40-57.3 40l-2.5 14.2c-1.1.7-2 1.7-2.5 2.9l-.5-.1Z"/><path class="cls-1" d="m126.4 155.4 9.8 12.1-15-3.7-6 15.6-1.6-17-15.3-.8 12.3-7.3-3.9-16.5 11.2 10.3s13.3-6.8 14-7.8l-5.5 15.1Zm-10 121.5 8.2 60h-.4s-20 12.6-14.5 45.4v.3H64s-41.4.7-39.2-28.6c2.5-31.8 91.5-77 91.5-77h.1Z"/><path class="cls-2" d="M98.5 131a2.8 2.8 0 1 1 0 5.6 2.8 2.8 0 0 1 0-5.7Zm-1 100.2.3 1.2-31 5.4v-.2l17-27.6.8.5s12.6.3 13 20.7Z"/><circle class="cls-2" cx="89.5" cy="152.3" r="4.1"/><path class="cls-2" d="M61.4 187.2v.2l-16 7.6h-.3v-19.2h.8s13-4 15.5 11.4Z"/><path class="cls-2" d="M365.2 403.7H129.9c-.6 0-1.2-.4-1.4-1-2.7-7.9 1.3-17 1.5-17.4a1.5 1.5 0 0 1 2.8 1.2 26 26 0 0 0-1.7 14.2h233.1c.6-1.5 1.6-6-2.8-14.1a1.5 1.5 0 0 1 1-2.2c-.2-.3-.3-.6-.3-1 0-.8.7-1.5 1.5-1.5h66.5c.3 0 26.8.2 37.1-11.8 3.5-4 4.8-9 3.8-15-5-30.4-88.1-75.1-89-75.6a1.5 1.5 0 0 1 1.5-2.7c.2.1 21.4 11.5 43 26.7 29.3 20.4 45.3 37.6 47.5 51.1 1.1 6.9-.4 12.7-4.4 17.5-11.3 13-38.4 12.9-39.5 12.9H364l.1.2c6.5 12.1 2.5 17.7 2.3 18-.3.3-.7.5-1.2.5ZM63.4 384.1c-3.2 0-23.6-.4-34.2-11.6a23.3 23.3 0 0 1-6-18.6c1-13.7 17-31 47.3-51.6 22.4-15.2 44.8-26.6 45-26.8a1.5 1.5 0 1 1 1.4 2.8c-1 .4-88.3 45.3-90.7 75.9-.5 6.5 1.3 12 5.3 16.2 10.3 11 32 10.7 32.3 10.7h67a1.5 1.5 0 1 1 0 3H63.3Zm407-114.4-.5-.1-58.4-15.9-23.7-6.4a1.5 1.5 0 1 1 .8-3l23.7 6.5 56.5 15.3v-190l-121.4 45.2v75a1.5 1.5 0 0 1-3.1 0v-76.1c0-.6.4-1.2 1-1.4l124.5-46.2a1.5 1.5 0 0 1 2 1.4V268a1.5 1.5 0 0 1-1.5 1.6Zm-441.7 0a1.5 1.5 0 0 1-1.5-1.6V74a1.5 1.5 0 0 1 2-1.4l124.6 46.2c.6.2 1 .8 1 1.4v77.7a1.5 1.5 0 1 1-3 0v-76.6L30.3 76.2v190l80.2-21.9a1.5 1.5 0 0 1 .8 3L29 269.6h-.4Zm261-70.4h-.6a1.5 1.5 0 0 1-.9-2c3-8.4 5.9-17 8.3-25.5a1.5 1.5 0 1 1 3 .8 369 369 0 0 1-2.5 8.2c3.6-.1 6.8-1.6 9.5-4.5 5.4-5.6 7.7-15 7.1-21-.2-1.8-.7-3-1.5-3.5-1.2-.7-3.1-.1-3.7.1l-.7.3a1.5 1.5 0 0 1-2.2-1.4c-.2-.8.3-1.6 1-1.8l.6-.2c2-.9 4.9-3.7 4.4-5.3 0-.2-.6-.3-1.3-.3-1.9 0-4.4 1-4.4 1a1.5 1.5 0 0 1-2-1.9c-.7 0-1.3-.7-1.3-1.4-1-19.5-6.8-34-17.3-43.2a43.8 43.8 0 0 0-28.6-10.5 91.3 91.3 0 0 1-38.5 35.4 52.2 52.2 0 0 1-18.3 4.7l-2.3 13a1.5 1.5 0 0 1-3-.6l2.5-14.2c.2-.8.8-1.3 1.6-1.3 0 0 7.8.2 18.4-4.4a86 86 0 0 0 37.5-34.9c.2-.4.7-.7 1.1-.7a46 46 0 0 1 31.6 11.1c11.1 9.8 17.3 25 18.3 45.4v.3c1-.4 3-.9 4.7-.9 3 0 4 1.6 4.3 2.6.6 2-.6 4.2-2.2 6 .5 0 1 .2 1.4.5 1.7 1 2.7 3 3 5.8.6 6.7-2 17.2-8 23.4A17 17 0 0 1 296 184c-1.5 4.9-3.2 9.7-4.9 14.4-.2.7-.8 1-1.4 1Zm-81.3 0c-.6 0-1.1-.3-1.4-.9-1.8-3.8-3.4-7.6-5-11.5-2.9.8-5.7.4-8.4-1.1-7-4-11.2-15-12.8-24-1-5-.3-8.7 2-10.9 1-1 2.4-1.6 3.6-1.9-1.8-1.7-3.2-4-2.5-6.3.2-.8 1-2.3 3.5-2.5 2.5-.3 5.9 1 6.2 1a1.5 1.5 0 1 1-1 3 14 14 0 0 0-5-1c-.7 0-.7.3-.8.3-.4 1.6 2.5 4.5 4.5 5.3l.5.1a1.5 1.5 0 0 1-.4 3c-.4.2-.8.3-1.3.1-.8-.1-3.5-.5-5.2 1.1-1.4 1.5-1.8 4.3-1.1 8.1 1.4 8 5.3 18.5 11.3 22 1.9 1 3.8 1.3 6 .8-1.8-4.8-3.3-9.6-4.6-14.5a1.5 1.5 0 0 1 3-.8 165 165 0 0 0 10.3 28.4 1.5 1.5 0 0 1-1.4 2.2Zm45.8-7.4c-2.5 0-6.4 0-12.7-.3a1.5 1.5 0 0 1-1.4-1.8 225 225 0 0 0 .7-38.3l-.1-1.2v-.5c-.1-.6.2-1.3.8-1.7.4-.2 10-5.7 16.2.7a384.8 384.8 0 0 0 1.5 41.3c0 .4-.1.9-.4 1.2-.4.4-.6.6-4.6.6Zm2-1.5Zm-12.8-1.8c5 .2 10.2.3 12.6.2-1-12.7-1.4-25.7-1.2-38.4-3.7-3-9-1-11 0v1c.4 8 1 26.9-.4 37.2Zm-36.2-127c-5.1 0-11.7-.8-16.9-4A1.5 1.5 0 0 1 192 55c6.7 4 16.5 3.6 20.8 3.1a41 41 0 0 1-5-18.5c0-21.8 18.4-39.6 41-39.6s41 17.8 41 39.6a34 34 0 0 1-4.3 17.3 1.5 1.5 0 1 1-2.7-1.5c2.7-5 3.9-9.8 3.9-15.8 0-20.1-17-36.5-38-36.5s-37.8 16.4-37.8 36.5c0 6 2 12.9 5.7 19a1.5 1.5 0 0 1-1 2.3c-.4 0-3.8.6-8.3.6Z"/><path class="cls-2" d="M391.3 384.2c-.8 0-1.5-.7-1.5-1.5.2-9.8-1.2-23.7-9.2-35.2a33.2 33.2 0 0 0-9.8-9.7 1.5 1.5 0 0 1 1.4-2.7c.3.2 5.6 3 10.8 10.5a60.5 60.5 0 0 1 9.9 37.1c0 .9-.7 1.5-1.6 1.5Zm-281.6-.4c-.7 0-1.4-.5-1.5-1.3-1.6-9.6-2-23.6 5.4-36a33.7 33.7 0 0 1 9.8-10.9 1.5 1.5 0 0 1 1.6 2.6s-4.8 3.1-8.9 10a49 49 0 0 0-4.9 33.8 1.5 1.5 0 0 1-1.5 1.8Zm-81-114.1a1.5 1.5 0 0 1-1.3-2.4l16.1-25.7v-140l-16-25.2a1.5 1.5 0 1 1 2.5-1.6l16 25 96 30 10.2-10.7a1.5 1.5 0 0 1 2.2 2.1l-10.4 11v64.6a1.5 1.5 0 1 1-3.1 0v-64l-94.3-29.6v89.5l14.2-6.7 28-13.2 23.7-11.3a1.5 1.5 0 0 1 2 2.2l-29.3 47.1-15.5 24.9 27.8-4.8 11-1.8a1.5 1.5 0 0 1 .5 3l-11 1.8-31 5.3a338.5 338.5 0 0 0-20.9 4l-16 25.7c-.4.5-.9.8-1.4.8ZM46.6 196V240a449 449 0 0 1 19.1-3.6l16.9-27.2 26.5-42.7-19 9-28 13.3-15.5 7.3Z"/><path class="cls-2" d="M462.7 267c-.8 0-1.5-.6-1.5-1.4v-36.3a1.5 1.5 0 0 1 3 0v36.2c0 .9-.6 1.6-1.5 1.6Zm-9.7-3.2c-.9 0-1.6-.7-1.6-1.5V228a1.5 1.5 0 0 1 3 0v34.3c0 .8-.6 1.5-1.4 1.5Zm-13.1-3.7c-.8 0-1.5-.7-1.5-1.5v-28.1a1.5 1.5 0 0 1 3 0v28.1c0 .8-.7 1.5-1.5 1.5Zm-19.6-4.9c-.8 0-1.5-.6-1.5-1.5v-26.1a1.5 1.5 0 0 1 3 0v26.1c0 .9-.6 1.5-1.5 1.5Zm-8.1-2.4c-.9 0-1.6-.7-1.6-1.5v-31.1a1.5 1.5 0 0 1 1.7-1.5l31 3.5-.4-40.7a1.5 1.5 0 0 1 1.6-1.5l26 1.2a1.5 1.5 0 1 1 0 3h-.2l-24.4-1 .4 40.7a1.5 1.5 0 0 1-1.7 1.5l-30.9-3.5v29.4c0 .8-.7 1.5-1.5 1.5Zm-314.6-20c-.9 0-1.5-.8-1.6-1.6-.3-18.6-11-19.2-11.4-19.2-.8 0-1.5-.7-1.5-1.6 0-.8.7-1.5 1.6-1.5.1 0 3.7.2 7.2 3.1 4.6 3.8 7 10.2 7.2 19.1 0 .9-.7 1.6-1.5 1.6Zm9-14.2c-.6 0-1.1-.4-1.4-1-1-2.6-3.7-5.2-3.7-5.2-.6-.6-.6-1.5 0-2.1l3.2-3.7a1.5 1.5 0 1 1 2.3 2l-2.4 2.7a21 21 0 0 1 3.4 5.1 1.5 1.5 0 0 1-1.4 2.2Zm356.1-1.3c-.8 0-1.5-.7-1.5-1.5v-24.9a1.5 1.5 0 0 1 3 0v24.9c0 .8-.6 1.5-1.5 1.5Zm-9.7-2.5c-.9 0-1.6-.6-1.6-1.5v-23.6a1.5 1.5 0 0 1 3 0v23.6c0 .9-.6 1.5-1.4 1.5Zm-340.6-15.6a1.5 1.5 0 0 1-1.4-2c.5-1.5 1.8-6.7-1.6-9.6a7.8 7.8 0 0 0-8.4-1.4c-.7.4-1.6 0-2-.7-.4-.7-.1-1.6.6-2 .3-.1 6-3 11.8 1.8 4.8 4 3.1 10.8 2.5 12.8-.2.7-.8 1-1.5 1Zm16.2-6.9c-.9 0-1.5-.6-1.5-1.5v-7.7l-5.7-1.3a1.5 1.5 0 1 1 .7-3l5 1.1v-7a1.5 1.5 0 1 1 3 0v7.8l5.7 1.3a1.5 1.5 0 0 1-.7 3l-5-1.2v7c0 .9-.7 1.5-1.5 1.5Zm-67.2-3.6c-.7 0-1.4-.5-1.5-1.3-.7-4.4-2.4-7.5-5-9.2-3.8-2.3-8.5-1-8.5-1a1.5 1.5 0 0 1-1-2.9c.3 0 6-1.8 11 1.3 3.5 2.2 5.7 6 6.5 11.4a1.5 1.5 0 0 1-1.5 1.7Zm53.8-7.8h-.2c-.7-.1-1.2-.7-1.3-1.4l-1.5-15.6-14-.8a1.5 1.5 0 0 1-.7-2.9l11.4-6.7-3.6-15.3a1.5 1.5 0 0 1 2.5-1.5l10.4 9.6c5.7-3 11.7-6.2 12.6-7a1.5 1.5 0 0 1 2.6 1.6l-5.3 14.3 9.3 11.4a1.5 1.5 0 0 1-1.5 2.4l-13.8-3.3-5.5 14.2c-.2.6-.8 1-1.4 1Zm-11.8-20.6 10.3.6c.7 0 1.4.7 1.4 1.4l1 10.4 3.6-9.4c.3-.7 1-1.1 1.8-1l10.7 2.7-7-8.6c-.3-.4-.4-1-.2-1.5l4-10.9c-3.5 2-8 4.3-10.4 5.5-.6.3-1.2.2-1.7-.3l-7.5-6.9L112 154c.2.7-.1 1.3-.7 1.7l-8 4.7Zm27.3-20.8Zm89.9 41.3h-2.2a28 28 0 0 1-21.5-10.8 32.8 32.8 0 0 1-6.4-19.6c0-2.8.5-5.6 1.6-8.1a7.5 7.5 0 0 1 3.2-3.6 55 55 0 0 1 38.4 0c5.5 2.4 8.8 5.9 9.8 10.4v.3l.2 2c.2 4.7 0 16.4-7.3 23.6-4 3.9-9.2 5.8-15.8 5.8Zm-6.4-42.5c-7.4 0-14.2 1.2-17.4 3-.9.5-1.5 1.3-2 2.2-.8 2.1-1.3 4.5-1.2 6.9 0 6.3 2 12.6 5.7 17.7a25 25 0 0 0 19.3 9.6c6.7.4 12-1.2 15.7-4.8 6.3-6.4 6.5-17 6.3-21.3l-.2-2c-.7-3.4-3.4-6.2-8-8.1-5-2.3-11.8-3.2-18.2-3.2Zm63.7 42.5c-6.7 0-12-2-16-6-7.8-8.3-6.7-22.3-6.4-25v-.7c1.2-5.2 5.7-9.3 13-11.6a57.6 57.6 0 0 1 20.9-2c7.1.4 12.8 2 15.2 4.2l.2.2c.7.7 1.3 1.6 1.6 2.3 1 2 1.6 4.9 1.6 8.2.1 8.4-3.2 16.7-9.2 22.7a28.8 28.8 0 0 1-20.9 7.7Zm-19.3-31.1v.4c-.3 2.5-1.3 15.3 5.6 22.5 3.6 3.8 9 5.5 15.8 5.1 6.2-.2 12.1-2.6 16.7-6.8a28.6 28.6 0 0 0 8.2-20.5 17 17 0 0 0-1.3-7 4.6 4.6 0 0 0-1-1.3l-.1-.2c-3.8-3.4-21.2-5.4-33.2-1.5-4.2 1.4-9.5 4.1-10.7 9.3Zm39.1 22.3Zm-208.2 3.7c-.4 0-.7-.2-1-.5-.2-.1-.3-.2-.3-.4-1-1.7-2.2-2.6-3.6-2.9-3.3-.6-7.1 2.6-7.1 2.6a1.5 1.5 0 0 1-2.4-1.7c.9-2.2 3-8.6 1.4-12.2-.4-1-1.1-1.8-2.2-2.2-6-2.3-11.1 6.6-11.2 6.7a1.5 1.5 0 0 1-2.8-.9c.3-3.7 0-14.7-4.5-15.5-5.5-.9-9 9.1-9 9.2a1.5 1.5 0 0 1-3-1c.3-.4 4.4-12.6 12.5-11.2 5.6 1 6.9 8.7 7 14 2.7-3 7-6 12.1-4.1 1.8.7 3.2 2 4 3.8 1.3 3.2.6 7.4-.2 10.5 1.7-.8 3.8-1.4 6-1a8 8 0 0 1 5.5 4.3 1.5 1.5 0 0 1-1.2 2.5Zm-19.1-27.3c-.9 0-1.6-.7-1.6-1.6v-8.4a7.3 7.3 0 0 1-5.7-7.7l-7-1.6a1.5 1.5 0 1 1 .8-3l7.1 1.7c1.2-2 3.2-3.4 5.5-3.7v-8.3a1.5 1.5 0 1 1 3 0v8.6c2.9 1 5 3.5 5.1 6.5l5.9 1.1a1.5 1.5 0 0 1-.6 3l-5.8-1c-.8 2.2-2.8 3.9-5.2 4.4v8.4c0 .9-.7 1.6-1.5 1.6Zm0-21.3a4.2 4.2 0 1 0 0 8.4 4.2 4.2 0 0 0 0-8.4Z"/><path class="cls-2" d="M286.5 159c-.8 0-1.8 0-3-.3l-1.4-.2a29.8 29.8 0 0 0-9.3 0c-2.4.4-4 .7-5.2-.3-.4-.4-1-1-1-2.1 0-4.3 6.4-7.6 11.8-7.6h.3l.2.1h.5c6 .4 10.2 4.4 10.2 7.8 0 1-.5 1.7-.9 2-.6.5-1.3.7-2.2.7Zm-8.7-3.9a33 33 0 0 1 6.2.6l2.5.3c-.4-1.4-2.9-4-7.3-4.3h-.8l-.1-.1c-5 0-8.2 2.8-8.5 4.2l2.6-.2 2.2-.3 3.2-.2Z"/><path class="cls-2" d="M213 159c-.8 0-1.5-.1-2.1-.6-.4-.3-1-1-1-2 0-3.4 4.3-7.4 10.3-7.8h1c5.4 0 11.7 3.2 11.7 7.5 0 1-.5 1.7-.9 2-1.1 1-2.8.8-5.2.5a30 30 0 0 0-10.7.1c-1.2.2-2.2.4-3 .4Zm8.3-7.4H220.4c-4.5.4-7 3-7.3 4.4l2.5-.3 1.5-.2c2.6-.4 5.3-.5 7.9-.2.8 0 1.6.2 2.2.3l2.6.2c-.3-1.4-3.5-4.2-8.5-4.2Zm-.4-1.5Zm61.4 8h-.4c-.8-.2-1.3-1-1-1.8.3-1.4.2-2.7-.4-3.6-.3-.6-.8-1-1.4-1h-.4c-.8 0-1.8.4-2.4 1.3-.6.9-.6 1.9-.2 3a1.5 1.5 0 1 1-2.8 1.2c-.8-2.1-.7-4.2.4-5.8 1-1.7 3-2.7 4.9-2.8h.8c1.7-.9 3.7-2.3 4-2.8a1.5 1.5 0 0 1 2.7 1.6 12 12 0 0 1-3.5 3l.5.6c1 1.6 1.3 3.8.7 6-.2.8-.8 1.2-1.5 1.2Zm3.3-4.3a1.5 1.5 0 0 1-.5-3c1.5-.5 3.4-1.6 3.8-2.2a1.5 1.5 0 1 1 2.7 1.4c-1 2-4.8 3.5-5.5 3.7l-.5.1Z"/><path class="cls-2" d="M362.8 387.4H131.4c-.8 0-1.4-.6-1.5-1.3l-.5-3.3L123 337l-12.6-91.2-6.6-47.6a1.5 1.5 0 0 1 1.5-1.8h290.4a1.5 1.5 0 0 1 1.5 1.8l-14 80-10.3 58.4-8.3 47-.4 2.4c-.1.8-.8 1.3-1.5 1.3Zm-230.1-3h228.8l.2-1.3 8.3-47 10.3-58.4 13.7-78.1H107.2l6.3 45.9 12.6 91.2 6.3 45.6.3 2Zm84.5-226.2c-.6 0-1.2-.4-1.4-1.1-.7-2.3-.4-4.5.7-6.1l.5-.7a12 12 0 0 1-3.5-3 1.5 1.5 0 1 1 2.6-1.5c.3.5 2.4 1.9 4 2.8h.8c2 0 4 1.1 5 2.8 1 1.6 1.2 3.7.4 5.8a1.5 1.5 0 1 1-2.9-1.1c.5-1.2.5-2.2 0-3-.7-1-1.7-1.4-2.5-1.5h-.4c-.6.2-1.1.5-1.5 1-.6 1-.7 2.2-.3 3.7a1.5 1.5 0 0 1-1.5 1.9Zm-3.2-4.4h-.5c-.8-.3-4.5-1.7-5.5-3.8a1.5 1.5 0 1 1 2.7-1.4c.3.7 2.3 1.7 3.8 2.3a1.5 1.5 0 0 1-.5 3Zm28.2-4c-.7 0-1.4-.5-1.5-1.3 0-.1-1.3-10-9.6-14.6-10.8-6-27.5-.3-27.7-.3a1.5 1.5 0 0 1-1-2.9c.8-.2 18.2-6.1 30.2.5 9.7 5.4 11 16.5 11.1 17a1.5 1.5 0 0 1-1.5 1.7Zm14.2-.2h-.4c-.8-.2-1.3-1-1.1-1.9a25 25 0 0 1 8.3-14c7.6-6 19-7.3 34-3.7a1.5 1.5 0 0 1-.8 3c-14-3.4-24.5-2.3-31.2 3-5.3 4.3-6.8 10.2-7.3 12.4-.2.8-.8 1.2-1.5 1.2Z"/><path class="cls-2" d="M497.5 366.4H472a1.5 1.5 0 0 1 0-3h25.4a1.5 1.5 0 0 1 0 3Zm-471.4 0H1.5a1.5 1.5 0 0 1 0-3h24.6a1.5 1.5 0 0 1 0 3Zm224-56.1a20.4 20.4 0 0 1-20.5-21.6 20.6 20.6 0 1 1 20.5 21.6Zm0-38.1a17.5 17.5 0 1 0 0 35 17.5 17.5 0 0 0 0-35Zm179.2-14.6c-.8 0-1.5-.7-1.5-1.6V229a1.5 1.5 0 0 1 3 0V256c0 .9-.6 1.6-1.5 1.6Zm-43.5-80.3h-1c-7.2-.3-38.1-.5-38.5-.5a1.5 1.5 0 0 1 0-3c1.3 0 31.4.1 38.6.5 4.2.2 7.3-1.2 8.2-3.6.7-2-.2-4.3-2.5-6-7.4-5.6-18.2 0-18.3.1a1.5 1.5 0 0 1-2.2-1.7c0-.4 2-10-7.4-14.1-9.4-4-14.8 4.2-15 4.6a1.5 1.5 0 1 1-2.6-1.7s7-10.8 18.8-5.7a15 15 0 0 1 9.4 14.8c4.1-1.6 12.5-3.7 19.2 1.3 3.3 2.4 4.6 6.1 3.5 9.4-1 2.8-4.2 5.6-10.2 5.6Zm18.4-29.3c-4.4 0-8.5-2.3-10.3-5.9-1.4-2.8-1-6 1-8.4 5.7-6.5 15.9-4.4 20.7-2.9-.5-3.7-.8-10.2 3.7-14.2 4.8-4.4 12-.4 15.6 2.3.6-5.6 2.9-17.4 11.2-19.6 2.4-.6 4.7-.3 6.8 1 3.3 2 5.5 6 6.8 9.3 1.6-3.7 4.6-7.5 9.8-7.7.8 0 1.5.6 1.6 1.4 0 .8-.6 1.6-1.5 1.6-7.2.4-8.2 10.3-8.3 10.4a1.5 1.5 0 0 1-3 .2c0-.1-2-9.6-7-12.6-1.4-.8-2.8-1-4.5-.6-8.5 2.2-9 19.4-9 19.6a1.5 1.5 0 0 1-2.6 1c-.1 0-9.4-8.1-13.9-4-4.9 4.4-2.1 13.7-2.1 13.8a1.5 1.5 0 0 1-2 1.9c-.2 0-14-5.7-19.9 1a4.4 4.4 0 0 0-.7 5.2c1.1 2.2 4.1 4.4 8.2 4.2l65.1-6.2a1.5 1.5 0 0 1 .3 3 9596.4 9596.4 0 0 1-66 6.2Zm-216.8-5.4c-.5 0-1-.2-1.3-.7-.5-.9-11.8-21-2.7-50 3-9.3 8-17.2 15.1-23.4l-7 3c-.8.4-1.7 0-2-.7s0-1.7.7-2l22.7-10h.8l1-.5c11.8-5.2 26.5-7.9 43.7-8 8.9-.2 17.9 1.6 26 4.9 25.2 10.5 45.8 38.7 28 86.4a1.5 1.5 0 0 1-2.8-1c7.7-21 8.5-39.2 2.4-54.3A52 52 0 0 0 283.2 58a64 64 0 0 0-24.8-4.7c-16.7.2-31 2.8-42.5 7.9-15 6.5-25 17.2-29.6 31.7a63.2 63.2 0 0 0 2.4 47.5 1.5 1.5 0 0 1-1.3 2.2ZM288.1 38c-.9 0-1.5-.6-1.5-1.5 0-3.1 1.2-8.9 2-13l.9-4.5c0-.8.8-1.4 1.6-1.3.9 0 1.5.8 1.4 1.6a293 293 0 0 0-2 9.8l3-4a1.5 1.5 0 1 1 2.4 2 43.2 43.2 0 0 0-6.7 10.5c-.3.3-.7.4-1.1.4Z"/></svg>